<svg width="32px" height="32px" viewBox="0 0 32 32" xmlns="http://www.w3.org/2000/svg">
  <path d="M16,3A13,13,0,1,0,29,16,13,13,0,0,0,16,3Zm3.33,7.49.88,1.3-3.23,2.16-1-1.48,3.35-2ZM13.23,10.6,12,12.26,9.15,10.12l1-1.6,2.08,2.08ZM12.53,16l-1,1.48-3-.9.33-1.6,3.67,1ZM17,17.43l.89,1.5,3.34-1.12.33-1.61-4.56,1.23ZM16,23.5A7.5,7.5,0,1,1,23.5,16,7.5,7.5,0,0,1,16,23.5Z" style="fill: #00a1e4"/>
  <path d="M16,9.5a6.5,6.5,0,1,0,6.5,6.5A6.5,6.5,0,0,0,16,9.5Zm0,12A5.5,5.5,0,1,1,21.5,16,5.5,5.5,0,0,1,16,21.5Z" style="fill: #00a1e4"/>
</svg> 