<svg xmlns="http://www.w3.org/2000/svg" width="32" height="20" viewBox="0 0 32 20">
    <g fill="none" fill-rule="evenodd">
        <path fill="#009EE3" d="M11.238 3.033c-.34.008-.62.29-.612.63l.794 4.985c.025.155.17.26.326.26h2.93c2.99 0 4.8-1.566 4.2-4.49C18.444 1.95 15.86.84 13.24 1.05c-.655.052-1.22.37-1.634.85l-.368.433z"/>
        <path fill="#0079C1" d="M12.032 8.018l-.83 5.21c-.024.155.09.3.246.3h2.93c1.77 0 2.54-1.23 2.82-2.58.4-1.952-.92-3.23-2.7-3.23h-2.466z"/>
        <path fill="#002069" d="M14.246 1.05c-2.62-.21-5.204.89-6.036 3.42-.885 2.68.835 4.54 3.12 4.54h2.24c.156 0 .292-.125.31-.28l.83-5.21c.06-.35-.2-.67-.556-.73l-.64-.13-.018-.01z"/>
    </g>
</svg> 